<?xml version="1.0" standalone="no"?>
<!DOCTYPE svg PUBLIC "-//W3C//DTD SVG 20010904//EN"
 "http://www.w3.org/TR/2001/REC-SVG-20010904/DTD/svg10.dtd">
<svg version="1.0" xmlns="http://www.w3.org/2000/svg"
 width="421.000000pt" height="421.000000pt" viewBox="0 0 421.000000 421.000000"
 preserveAspectRatio="xMidYMid meet">
<metadata>
Created by potrace 1.14, written by Peter Selinger 2001-2017
</metadata>
<g transform="translate(0.000000,421.000000) scale(0.100000,-0.100000)"
fill="#000000" stroke="none">
<path d="M2214 3631 c-34 -12 -67 -17 -105 -13 -46 3 -67 -1 -127 -27 -40 -17
-98 -33 -129 -36 -72 -8 -95 -17 -127 -52 -15 -15 -33 -35 -40 -43 -8 -8 -37
-23 -65 -33 -65 -23 -121 -75 -121 -112 0 -26 -27 -70 -64 -108 -9 -8 -17 -36
-20 -62 -3 -37 -12 -55 -42 -88 -22 -23 -42 -43 -46 -45 -5 -2 -8 -10 -8 -18
0 -8 -4 -14 -9 -14 -5 0 -11 -8 -15 -17 -3 -10 -11 -31 -17 -48 -6 -16 -13
-48 -15 -70 -3 -22 -15 -62 -27 -90 -20 -46 -22 -68 -24 -275 -3 -370 -11
-692 -18 -735 -13 -79 1 -175 26 -175 19 0 -19 -98 -52 -134 -47 -50 -70 -161
-45 -221 8 -18 26 -44 40 -56 27 -23 36 -75 17 -95 -22 -22 -22 -86 0 -131 42
-86 125 -121 201 -82 20 10 38 14 40 9 2 -5 16 -11 33 -14 16 -3 34 -11 40
-18 21 -27 80 -46 130 -42 28 3 77 4 110 4 33 0 74 3 90 8 24 7 34 5 50 -10
24 -24 95 -58 122 -61 11 0 39 5 62 13 41 13 42 13 72 -18 17 -18 34 -32 38
-33 3 0 15 -2 26 -5 58 -11 114 -10 163 4 34 10 56 12 60 6 4 -6 27 -20 51
-32 34 -16 58 -20 110 -18 37 2 79 -2 96 -9 17 -6 32 -12 35 -12 3 -1 25 -6
49 -13 25 -6 58 -9 75 -5 42 8 123 8 144 -1 35 -15 49 -17 122 -18 127 -2 184
46 194 164 4 37 -20 110 -35 110 -16 0 -9 16 22 51 40 44 52 74 50 129 -2 61
-17 111 -46 154 -29 43 -30 52 -11 72 8 8 13 23 11 34 -2 11 0 20 4 20 18 0
28 51 30 146 3 131 8 180 26 264 3 14 8 36 11 49 3 13 9 32 15 43 5 10 7 18 3
18 -3 0 -1 7 6 15 7 8 9 15 5 15 -4 0 -2 7 5 15 7 8 9 15 5 15 -4 0 -3 6 2 13
11 12 35 105 38 142 1 11 4 38 8 60 18 110 21 154 21 320 0 100 -6 208 -12
240 -6 33 -13 87 -15 121 -8 111 -99 270 -217 377 -28 25 -50 50 -50 54 0 20
-81 91 -136 119 -32 16 -61 34 -63 39 -15 37 -181 164 -181 139 0 -4 -6 -2
-12 3 -13 10 -58 25 -88 29 -8 1 -28 5 -45 8 -16 3 -55 9 -85 12 -30 4 -67 15
-82 26 -27 19 -42 24 -103 34 -76 12 -114 11 -161 -5z"/>
</g>
</svg>
